<svg xmlns="http://www.w3.org/2000/svg" viewBox="0 0 1024 768"><defs><style>.cls-1,.cls-2,.cls-5,.cls-8{fill:none;}.cls-1,.cls-2,.cls-3,.cls-5{stroke:#000;}.cls-1,.cls-2,.cls-3,.cls-5,.cls-8{stroke-miterlimit:10;}.cls-1{stroke-width:10px;}.cls-2{stroke-width:8px;}.cls-4,.cls-6,.cls-7{font-size:40px;font-family:ArialMT, Arial;}.cls-6{letter-spacing:-0.02em;}.cls-7{fill:#fff;}.cls-8{stroke:#fff;}</style></defs><title>Artboard 1</title><g id="drumset"><g id="kick"><line class="cls-1" x1="636" y1="593" x2="665.5" y2="635.5"/><line class="cls-1" x1="448.5" y1="593" x2="419" y2="635.5"/><path d="M541,627.5c-82.43,0-149.5-67.07-149.5-149.5S458.57,328.5,541,328.5,690.5,395.57,690.5,478,623.43,627.5,541,627.5Z"/><path d="M541,329a149,149,0,1,1-105.36,43.64A148,148,0,0,1,541,329m0-1A150,150,0,1,0,691,478,150,150,0,0,0,541,328Z"/></g><g id="low-tom"><rect id="_rectangle_" data-name="&lt;rectangle&gt;" x="341" y="254" width="159" height="74"/></g><g id="hi-tom"><rect id="_rectangle_2" data-name="&lt;rectangle&gt;" x="578" y="255" width="142" height="70"/></g><g id="snare"><rect x="696" y="403" width="157" height="65"/></g><g id="floor-tom"><rect x="219" y="403" width="162" height="188"/><line class="cls-2" x1="223" y1="575" x2="214" y2="634"/><line class="cls-2" x1="300" y1="575" x2="300" y2="634"/><line class="cls-2" x1="377" y1="575" x2="386" y2="634"/></g><g id="ride"><polygon class="cls-3" points="182.34 201.53 287.29 250.27 68.59 180.28 182.34 201.53"/></g><g id="crash"><polygon class="cls-3" points="702.16 141.03 597.21 189.77 815.91 119.78 702.16 141.03"/></g><g id="hi-hat-pedal"><polygon id="pedal" class="cls-3" points="791.5 640.5 879.5 640.5 879.5 607.5 791.5 635.01 791.5 640.5"/></g><g id="hi-hat"><polygon id="hi-hat-bottom" class="cls-3" points="876.24 356.5 957.5 339.5 794.98 339.5 876.24 356.5"/><polygon id="hi-hat-top" class="cls-3" points="876.24 315.5 957.5 332.5 794.98 332.5 876.24 315.5"/></g><g id="tom-stands"><line class="cls-2" x1="525" y1="329" x2="525" y2="291"/><line class="cls-2" x1="489" y1="291" x2="529" y2="291"/><line class="cls-2" x1="551" y1="328" x2="551" y2="290"/><line class="cls-2" x1="547" y1="290" x2="614" y2="290"/></g><g id="snare-stand"><line class="cls-2" x1="774" y1="459" x2="774" y2="591"/><line class="cls-2" x1="774" y1="586" x2="743" y2="637"/><line class="cls-2" x1="774" y1="587" x2="805" y2="638"/></g><g id="ride-stand"><line class="cls-2" x1="180.5" y1="212.5" x2="179.5" y2="574.5"/><line class="cls-2" x1="180" y1="567" x2="129" y2="634"/><line class="cls-2" x1="178" y1="567" x2="235" y2="634"/></g><g id="crash-stand"><line class="cls-2" x1="706" y1="149" x2="706" y2="578"/><line class="cls-2" x1="705.5" y1="570.5" x2="756.5" y2="637.5"/><line class="cls-2" x1="707.5" y1="570.5" x2="650.5" y2="637.5"/></g><g id="hi-hat-stand"><line class="cls-2" x1="876" y1="291" x2="876" y2="614"/><line class="cls-2" x1="875.5" y1="570.5" x2="926.5" y2="637.5"/></g></g><g id="keys"><g id="key-82"><text class="cls-4" transform="translate(163 179)">R</text><rect class="cls-5" x="154" y="141" width="48" height="48" rx="14.55" ry="14.55"/></g><g id="key-70"><text class="cls-4" transform="translate(287.5 384.5)">F</text><rect class="cls-5" x="276.5" y="346.5" width="48" height="48" rx="14.55" ry="14.55"/></g><g id="key-84"><text class="cls-6" transform="translate(408.5 234.5)">T</text><rect class="cls-5" x="396.5" y="196.5" width="48" height="48" rx="14.55" ry="14.55"/></g><g id="key-89"><text class="cls-6" transform="translate(630.5 236.5)">Y</text><rect class="cls-5" x="619.5" y="198.5" width="48" height="48" rx="14.55" ry="14.55"/></g><g id="key-72"><text class="cls-4" transform="translate(759.5 384.5)">H</text><rect class="cls-5" x="750.5" y="346.5" width="48" height="48" rx="14.55" ry="14.55"/></g><g id="key-78"><text class="cls-4" transform="translate(820.5 602.5)">N</text><rect class="cls-5" x="811.5" y="564.5" width="48" height="48" rx="14.55" ry="14.55"/></g><g id="key-74"><text class="cls-4" transform="translate(866.5 273.5)">J</text><rect class="cls-5" x="852.5" y="235.5" width="48" height="48" rx="14.55" ry="14.55"/></g><g id="key-85"><text class="cls-4" transform="translate(690.5 119.5)">U</text><rect class="cls-5" x="681.5" y="81.5" width="48" height="48" rx="14.55" ry="14.55"/></g><g id="key-66"><text class="cls-7" transform="translate(530.5 491.5)">B</text><rect class="cls-8" x="519.5" y="453.5" width="48" height="48" rx="14.55" ry="14.55"/></g></g></svg>